

<svg version="1.0" xmlns="http://www.w3.org/2000/svg" width="709.000000pt" height="361.000000pt" viewBox="0 0 709.000000 361.000000" preserveAspectRatio="xMidYMid meet">

<g transform="translate(0.000000,361.000000) scale(0.100000,-0.100000)" fill="#000000" stroke="none">
<path d="M1560 3354 c-177 -26 -274 -50 -388 -95 -499 -198 -857 -635 -952
-1162 -35 -195 -22 -480 30 -662 150 -524 557 -929 1077 -1071 202 -55 151
-54 2203 -53 1115 0 1926 4 1970 10 663 83 1180 562 1322 1223 30 138 32 415
4 561 -103 550 -497 1004 -1023 1179 -45 15 -124 37 -175 49 l-93 21 -1975 2
c-1086 1 -1986 0 -2000 -2z m380 -438 c196 -68 337 -234 371 -436 5 -30 9
-436 9 -902 l0 -848 -555 0 -555 0 0 873 c0 730 3 881 15 927 54 202 220 361
425 404 90 19 204 12 290 -18z m1625 -846 c0 -821 -1 -879 -18 -935 -60 -194
-208 -340 -397 -390 -71 -19 -210 -19 -280 0 -186 49 -341 201 -394 385 -52
181 -3 386 123 523 110 119 222 170 408 186 82 7 117 16 168 40 74 34 152 107
186 172 46 90 49 122 49 522 l0 378 78 -3 77 -3 0 -875z m845 854 c187 -53
337 -209 385 -401 14 -53 15 -151 13 -715 l-3 -653 -30 -72 c-92 -220 -284
-353 -512 -353 -163 0 -284 50 -399 166 -80 80 -124 158 -149 268 -14 58 -15
155 -13 704 l3 637 24 62 c106 287 394 438 681 357z m1248 1 c363 -105 535
-586 286 -804 -66 -58 -138 -85 -224 -85 -104 1 -176 30 -238 96 -26 28 -64
67 -84 89 -83 85 -207 55 -271 -65 -22 -41 -22 -43 -25 -733 l-3 -693 -74 0
-75 0 0 868 c0 750 2 876 15 927 67 257 299 430 563 419 40 -1 98 -10 130 -19z"></path>
<path d="M1670 2227 c-85 -19 -147 -56 -210 -124 -82 -87 -105 -148 -104 -278
0 -87 4 -108 27 -158 14 -31 50 -82 79 -113 199 -211 531 -159 660 103 31 64
33 74 33 173 0 99 -2 109 -33 172 -84 170 -274 265 -452 225z"></path>
<path d="M2871 1544 c-147 -39 -260 -149 -261 -253 -1 -152 154 -273 366 -288
240 -17 444 111 444 278 0 122 -98 220 -265 265 -65 18 -215 17 -284 -2z"></path>
<path d="M4181 2229 c-114 -20 -239 -117 -291 -226 -114 -242 35 -525 302
-574 173 -32 353 64 431 228 30 63 32 76 32 173 0 93 -3 111 -27 163 -37 79
-78 129 -141 169 -98 64 -196 86 -306 67z"></path>
</g>
</svg>
